<svg xmlns="http://www.w3.org/2000/svg" viewBox="0 0 91.39 91.16"><defs><style>.cls-1{fill:#951b1e;}.cls-2{fill:#231f20;}</style></defs><title>Asset 1</title><g id="Layer_2" data-name="Layer 2"><g id="Logo"><path class="cls-1" d="M59.34,2.2a60.93,60.93,0,0,1,5.93,2.19,3,3,0,0,1,1.56,4L60.27,23.05a3,3,0,0,1-4,1.51,30.34,30.34,0,0,0-6.09-2"/><path class="cls-2" d="M46.16,22h-.58a22.3,22.3,0,0,0-16.69,7A23,23,0,0,0,22,45.81a22.32,22.32,0,0,0,6.92,16.62A22.89,22.89,0,0,0,45.81,69.3a21.24,21.24,0,0,0,16.54-7.15,25,25,0,0,0,6.87-17.63,3,3,0,0,1,3-3H88.39a3,3,0,0,1,3,3c-.11,12.87-4.55,23.95-13.18,32.91S58.64,91.16,45.81,91.16A44.76,44.76,0,0,1,13.4,78,43.49,43.49,0,0,1,0,45.89,44.67,44.67,0,0,1,13.29,13.47,44.92,44.92,0,0,1,55.54,1.17"/></g></g></svg>